<?xml version="1.0" standalone="no"?><!DOCTYPE svg PUBLIC "-//W3C//DTD SVG 1.1//EN" "http://www.w3.org/Graphics/SVG/1.1/DTD/svg11.dtd"><svg t="1536541733847" class="icon" style="" viewBox="0 0 1024 1024" version="1.1" xmlns="http://www.w3.org/2000/svg" p-id="1099" xmlns:xlink="http://www.w3.org/1999/xlink" width="16" height="16"><defs><style type="text/css"></style></defs><path d="M149.208277 895.679449l21.282722-170.267918c-60.423161-64.795748-93.597725-145.611356-93.597725-228.475622 0-203.257264 195.184401-368.615359 435.106726-368.615359s435.106726 165.358095 435.106726 368.615359-195.184401 368.615359-435.106726 368.615359c-70.603011 0-140.484591-14.635325-202.669886-42.388413L149.208277 895.679449zM512 162.694429c-220.964554 0-400.732847 149.941987-400.732847 334.24148 0 76.444043 31.822776 151.20884 89.602737 210.524784l5.765307 5.924943-15.70161 125.664048 111.287619-50.402947 6.184863 13.662161 8.030907-13.687744c59.491952 27.836999 127.115096 42.556235 195.562001 42.556235 220.964554 0 400.732847-149.941987 400.732847-334.24148S732.964554 162.694429 512 162.694429zM394.660548 516.945639c0 14.693654-11.912307 26.605961-26.605961 26.605961s-26.605961-11.912307-26.605961-26.605961 11.912307-26.605961 26.605961-26.605961S394.660548 502.251985 394.660548 516.945639zM535.876804 516.945639c0 14.693654-11.912307 26.605961-26.605961 26.605961-14.693654 0-26.605961-11.912307-26.605961-26.605961s11.912307-26.605961 26.605961-26.605961C523.964496 490.339678 535.876804 502.251985 535.876804 516.945639zM677.093059 516.945639c0 14.693654-11.912307 26.605961-26.605961 26.605961-14.693654 0-26.605961-11.912307-26.605961-26.605961s11.912307-26.605961 26.605961-26.605961C665.180751 490.339678 677.093059 502.251985 677.093059 516.945639z" p-id="1100" fill="#ffffff"></path></svg>